{"title":"Unknown *2011* [BluRay][1080p][ENG, POL]","uid":6560756,"size":8040107938,"categoryP":"video","categoryS":"hd___movies","magnet":"?xt=urn:btih:3568bcbbde09831338789e52040f2209d30801da&amp;dn=Unknown+%2A2011%2A+%5BBluRay%5D%5B1080p%5D%5BENG%2C+POL%5D&amp;tr=udp%3A%2F%2Ftracker.openbittorrent.com%3A80&amp;tr=udp%3A%2F%2Fopen.demonii.com%3A1337&amp;tr=udp%3A%2F%2Ftracker.coppersurfer.tk%3A6969&amp;tr=udp%3A%2F%2Fexodus.desync.com%3A6969","seeders":0,"leechers":6,"uploader":"albedo040","files":1,"time":1311457861,"description":"Unknown *2011* [BluRay][1080p][ENG, POL]\n\nGeneral information:\nCountry: UK, Germany, France, Canada, Japan, USA  \nRelease: 16 February 2011\nGenre: Drama, Mystery, Thriller  \nDirector: Jaume Collet-Serra\nScreenplay: Oliver Butcher, Stephen Cornwell, Didier Van Cauwelaert (novel &quot;Out of My Head&quot;)\nOriginal Music: John Ottman , Alexander Rudd\nCinematography by: Flavio MartÃƒÂ­nez Labiano\nDuration: 1h 53mn\nLanguage: English, Polish\nSubtitles: English, Polish\nRating: 7.1 - 10582 votes \n\nCast:\nLiam Neeson ...Dr. Martin Harris\nDiane Kruger ...Gina\nJanuary Jones ...Elizabeth Harris\nAidan Quinn ...Martin B\nBruno Ganz ...Ernst JÃƒÂ¼rgen\nFrank Langella ...Rodney Cole\nSebastian Koch ...Professor Leo Bressler \nOlivier Schneider ...Smith \nStipe Erceg ...Jones \nRainer Bock ...Herr Strauss \nMido Hamada ...Prince Shada \nClint Dyer ...Biko \nKarl Markovics ...Dr. Farge \nEva LÃƒÂ¶bau ...Nurse Gretchen Erfurt \nHelen Wiebensohn ...Laurel Bressler \n\nPlot:\nA man awakens from a coma, only to discover that someone has taken on his identity and that no one, (not even his wife), believes him. With the help of a young woman, he sets out to prove who he is.\n\nSpecifications:\nGeneral\nFormat                           : Matroska\nFormat version                   : Version 2\nOverall bit rate                 : 9 469 Kbps\n\nVideo\nFormat                           : AVC\nFormat/Info                      : Advanced Video Codec\nFormat profile                   : &lt;a class=&quot;__cf_email__&quot; href=&quot;/cdn-cgi/l/email-protection&quot; data-cfemail=&quot;dd95b4bab59d91e9f3ec&quot;&gt;[email&amp;#160;protected]&lt;/a&gt;&lt;script cf-hash='f9e31' type=&quot;text/javascript&quot;&gt;\n/* &lt;![CDATA[ */!function(){try{var t=&quot;currentScript&quot;in document?document.currentScript:function(){for(var t=document.getElementsByTagName(&quot;script&quot;),e=t.length;e--;)if(t[e].getAttribute(&quot;cf-hash&quot;))return t[e]}();if(t&amp;&amp;t.previousSibling){var e,r,n,i,c=t.previousSibling,a=c.getAttribute(&quot;data-cfemail&quot;);if(a){for(e=&quot;&quot;,r=parseInt(a.substr(0,2),16),n=2;a.length-n;n+=2)i=parseInt(a.substr(n,2),16)^r,e+=String.fromCharCode(i);e=document.createTextNode(e),c.parentNode.replaceChild(e,c)}}}catch(u){}}();/* ]]&gt; */&lt;/script&gt;\nFormat settings, CABAC           : Yes\nFormat settings, ReFrames        : 3 frames\nMuxing mode                      : Header stripping\nCodec ID                         : V_MPEG4/ISO/AVC\nBit rate mode                    : Variable\nBit rate                         : 8 409 Kbps\nMaximum bit rate                 : 18.0 Mbps\nWidth                            : 1 920 pixels\nHeight                           : 1 080 pixels\nDisplay aspect ratio             : 16:9\nFrame rate                       : 23.976 fps\n\nAudio 1\nFormat                           : AC-3\nFormat/Info                      : Audio Coding 3\nMode extension                   : CM (complete main)\nMuxing mode                      : Header stripping\nCodec ID                         : A_AC3\nBit rate mode                    : Constant\nBit rate                         : 640 Kbps\nChannel(s)                       : 6 channels\nChannel positions                : Front: L C R, Side: L R, LFE\nSampling rate                    : 48.0 KHz\nBit depth                        : 16 bits\nCompression mode                 : Lossy\nStream size                      : 518 MiB (7%)\nTitle                            : English\nLanguage                         : English\n\nAudio 2\nFormat                           : AC-3\nFormat/Info                      : Audio Coding 3\nMode extension                   : CM (complete main)\nMuxing mode                      : Header stripping\nCodec ID                         : A_AC3\nBit rate mode                    : Constant\nBit rate                         : 448 Kbps\nChannel(s)                       : 6 channels\nChannel positions                : Front: L C R, Side: L R, LFE\nSampling rate                    : 48.0 KHz\nBit depth                        : 16 bits\nCompression mode                 : Lossy\nStream size                      : 363 MiB (5%)\nTitle                            : Polish\nLanguage                         : Polish\n\nText 1\nFormat                           : UTF-8\nCodec ID                         : S_TEXT/UTF8\nCodec ID/Info                    : UTF-8 Plain Text\nTitle                            : Polish_Sub\nLanguage                         : Polish\n\nText 2\nFormat                           : UTF-8\nCodec ID                         : S_TEXT/UTF8\nCodec ID/Info                    : UTF-8 Plain Text\nTitle                            : English_Sub\nLanguage                         : English\n","torrent":{"xt":"urn:btih:3568bcbbde09831338789e52040f2209d30801da","amp;dn":"Unknown+%2A2011%2A+%5BBluRay%5D%5B1080p%5D%5BENG%2C+POL%5D","amp;tr":["udp%3A%2F%2Ftracker.openbittorrent.com%3A80","udp%3A%2F%2Fopen.demonii.com%3A1337","udp%3A%2F%2Ftracker.coppersurfer.tk%3A6969","udp%3A%2F%2Fexodus.desync.com%3A6969"],"infoHash":"3568bcbbde09831338789e52040f2209d30801da","infoHashBuffer":{"type":"Buffer","data":[53,104,188,187,222,9,131,19,56,120,158,82,4,15,34,9,211,8,1,218]},"announce":[],"urlList":[]}}